<svg xmlns="http://www.w3.org/2000/svg" viewBox="0 0 283.46 224.52"><defs><style>.cls-1{fill:#150e3b;}.cls-2{fill:#459ed7;}</style></defs><title>Nautilus Vertical</title><g id="Layer_2" data-name="Layer 2"><g id="Layer_1-2" data-name="Layer 1"><path class="cls-1" d="M27.32,183.74V155.57h6.33v39.59h-4.8L6.39,167.22v27.94H0V155.57H4.86Z"/><path class="cls-1" d="M71,186.85H49.6l-3.73,8.31H39.14L56.9,155.57h6.9l17.76,39.59H74.83Zm-10.69-24.6L52,181.08H68.72Z"/><path class="cls-1" d="M118.54,155.63v23.13c0,11.65-7.69,17.48-17.25,17.14C92.47,195.67,85,190,85,178.76V155.63h6.28v23.13c0,7.18,4.18,11.09,10.06,11.31,6.34.34,11-3.79,11-11.31V155.63Z"/><path class="cls-1" d="M137,161.28H124v-5.71h32.36v5.71h-13v33.88H137Z"/><path class="cls-1" d="M162.26,195.16V155.57h6.28v39.59Z"/><path class="cls-1" d="M184.83,155.57v33.71H205.7v5.88H178.49V155.57Z"/><path class="cls-1" d="M243.82,155.63v23.13c0,11.65-7.69,17.48-17.25,17.14-8.83-.23-16.35-5.88-16.35-17.14V155.63h6.28v23.13c0,7.18,4.18,11.09,10.07,11.31,6.33.34,11-3.79,11-11.31V155.63Z"/><path class="cls-1" d="M276.9,164.34c-1.86-2.72-5.65-4.36-9.78-4.41-5.32,0-9.16,2.2-9.16,6s4.41,4.92,9.61,5.66c8.15,1.13,15.89,3.39,15.89,12.27s-8.14,12.22-16.4,12.22c-7.58,0-13.4-2.32-17-9l4.75-3.16c2.83,4.81,7.75,6.5,12.33,6.5,4.75,0,10-1.58,10-6.56,0-4.3-4.58-5.77-10.12-6.5-7.87-1.08-15.33-3.06-15.33-11.54-.06-8.2,8.14-11.37,15.27-11.37,5.71,0,11.42,1.36,14.76,6.67Z"/><path class="cls-1" d="M39.14,211.14h-5v-2.2H46.58v2.2h-5v13H39.14Z"/><path class="cls-1" d="M63.59,224.17H52.34V208.94H63.52v2.37H54.78v4.12h8.39v2.26H54.78v4.09h8.81Z"/><path class="cls-1" d="M82.86,222.21a8,8,0,0,1-5.72,2.26c-5.52,0-8-3.8-8-7.8a7.62,7.62,0,0,1,8-8A7.75,7.75,0,0,1,82.71,211l-1.63,1.56A5.61,5.61,0,0,0,77.14,211a5.34,5.34,0,0,0-5.61,5.65,5.25,5.25,0,0,0,5.61,5.55,5.93,5.93,0,0,0,4-1.65Z"/><path class="cls-1" d="M99.31,224.17v-6.33h-8v6.33H88.82V208.94h2.44v6.64h8v-6.64h2.41v15.23Z"/><path class="cls-1" d="M119.54,219.78V208.94H122v15.23h-1.85l-8.64-10.75v10.75H109V208.94h1.87Z"/><path class="cls-1" d="M143.93,216.62c0,4.11-2.5,7.88-7.79,7.88s-7.79-3.85-7.79-7.86a7.61,7.61,0,0,1,7.83-8C141.38,208.68,143.93,212.51,143.93,216.62Zm-7.79,5.64c3.79,0,5.37-2.68,5.37-5.59s-1.61-5.73-5.33-5.79c-3.52,0-5.41,2.46-5.41,5.79C130.81,219.36,132.38,222.26,136.14,222.26Z"/><path class="cls-1" d="M152.74,208.94v13h8v2.26H150.3V208.94Z"/><path class="cls-1" d="M180.82,216.62c0,4.11-2.5,7.88-7.78,7.88s-7.79-3.85-7.79-7.86a7.61,7.61,0,0,1,7.83-8C178.28,208.68,180.82,212.51,180.82,216.62ZM173,222.26c3.78,0,5.37-2.68,5.37-5.59s-1.61-5.73-5.33-5.79c-3.52,0-5.42,2.46-5.42,5.79C167.71,219.36,169.27,222.26,173,222.26Z"/><path class="cls-1" d="M198.38,212.44a6.11,6.11,0,0,0-4.11-1.63c-3.57,0-5.64,2.68-5.61,5.9,0,2.78,1.65,5.48,5.61,5.48a5.47,5.47,0,0,0,3.72-1.35v-3.09h-4.24v-2.17h6.5v6.24a7.68,7.68,0,0,1-6,2.65c-5.59,0-8-3.72-8-7.76,0-4.4,2.81-8.14,8-8.14a8,8,0,0,1,5.63,2.31Z"/><path class="cls-1" d="M206.84,224.17V208.94h2.42v15.23Z"/><path class="cls-1" d="M227.81,224.17H216.57V208.94h11.18v2.37H219v4.12h8.4v2.26H219v4.09h8.81Z"/><path class="cls-1" d="M243.52,212.31a4.62,4.62,0,0,0-3.76-1.69c-2,0-3.53.85-3.53,2.3s1.7,1.9,3.7,2.18c3.13.43,6.11,1.3,6.11,4.72s-3.13,4.7-6.31,4.7c-2.91,0-5.15-.89-6.54-3.46l1.82-1.22a5.29,5.29,0,0,0,4.75,2.5c1.82,0,3.85-.61,3.85-2.52,0-1.65-1.76-2.22-3.9-2.5-3-.42-5.89-1.18-5.89-4.44s3.13-4.37,5.87-4.37c2.2,0,4.4.52,5.68,2.56Z"/><path class="cls-2" d="M174.22,37.72a35.7,35.7,0,0,1-8.37-1.43,35.07,35.07,0,0,1-14.79-8.84L151,27.4a45.66,45.66,0,1,0,7.59,54.49,3.33,3.33,0,0,0-2.08-4.84l-.39-.1a3.36,3.36,0,0,0-3.78,1.62A38.57,38.57,0,1,1,146,32.4l.05,0,0,0A42.14,42.14,0,0,0,160.84,42,42.27,42.27,0,0,0,169,44.22a41.89,41.89,0,0,0,7.5.56,42.23,42.23,0,0,0,26.75-9.92,3.35,3.35,0,0,0,.2-4.92l-.25-.24a3.33,3.33,0,0,0-4.5-.2A35.24,35.24,0,0,1,174.22,37.72Z"/><path class="cls-2" d="M170.73,51.57a49.22,49.22,0,0,1-7.33-1.34,50.05,50.05,0,0,1-8.09-2.89,49.3,49.3,0,0,1-13.22-9l0,0h0c-.32-.3-.64-.61-.95-.93l0,0,0-.05a31.61,31.61,0,1,0,0,44.7A31.82,31.82,0,0,0,145,77.3a3.35,3.35,0,0,0-1.35-4.94l-.36-.17a3.33,3.33,0,0,0-4.17,1.19,24.91,24.91,0,0,1-3,3.65,24.55,24.55,0,1,1,0-34.7l0,0,0,0a56.05,56.05,0,0,0,8.73,7.15c1.48,1,3,1.88,4.56,2.71a55.5,55.5,0,0,0,7.63,3.37,55.6,55.6,0,0,0,7.24,2,55.07,55.07,0,0,0,7,1,53.8,53.8,0,0,0,7.07.15,56.18,56.18,0,0,0,34.9-14,3.33,3.33,0,0,0,.12-4.84l-.2-.19a3.36,3.36,0,0,0-4.6-.12A49.27,49.27,0,0,1,177.9,51.82,49,49,0,0,1,170.73,51.57Z"/><path class="cls-2" d="M223.43,49.89l-.27-.26a3.34,3.34,0,0,0-4.62-.1,63.19,63.19,0,0,1-40.43,16.31,62.51,62.51,0,0,1-7.11-.16,61.48,61.48,0,0,1-6.9-.93l-.44-.09c-.15,0-.29-.07-.44-.09l-1.57-.35c-.74-.17-1.48-.35-2.21-.55l-1-.29L157.16,63a61.83,61.83,0,0,1-6.83-2.55c-1.19-.53-2.37-1.1-3.54-1.7s-2.49-1.35-3.7-2.08A63.24,63.24,0,0,1,131.84,48l0,0c-.22-.2-.44-.41-.65-.63l0,0a17.57,17.57,0,1,0-19.3,28.57,17.3,17.3,0,0,0,6.83,1.39,17.55,17.55,0,0,0,13.88-6.81,3.33,3.33,0,0,0-.76-4.77l-.32-.22a3.28,3.28,0,0,0-4.47.62,10.51,10.51,0,1,1-.9-13.83l0,0a3,3,0,0,1,.3.32l0,0a69.56,69.56,0,0,0,9.75,8,72.39,72.39,0,0,0,6.49,3.94c1.08.57,2.16,1.12,3.26,1.63s2.18,1,3.29,1.44A69.26,69.26,0,0,0,155.89,70a68.42,68.42,0,0,0,6.89,1.67c2.3.43,4.61.76,6.95,1a67.11,67.11,0,0,0,7.23.27,70.27,70.27,0,0,0,46.37-18.19A3.35,3.35,0,0,0,223.43,49.89Z"/><path class="cls-2" d="M170.45,79.34l-.46,0a3.31,3.31,0,0,0-3.27,1.94,52.63,52.63,0,1,1-10.8-58.75l0,.05.12-.12a28,28,0,0,0,14.5,7.72,28.24,28.24,0,0,0,22.48-5.2,3.36,3.36,0,0,0,.37-5.05l-.13-.13a3.35,3.35,0,0,0-4.41-.26,21.36,21.36,0,0,1-27.25-1.26c-.24-.21-.48-.44-.71-.67l0,0A59.55,59.55,0,1,0,173.28,84,3.33,3.33,0,0,0,170.45,79.34Z"/></g></g></svg>